<?xml version="1.0" encoding="UTF-8" standalone="no"?>
<svg
   xmlns:osb="http://www.openswatchbook.org/uri/2009/osb"
   xmlns:dc="http://purl.org/dc/elements/1.1/"
   xmlns:cc="http://creativecommons.org/ns#"
   xmlns:rdf="http://www.w3.org/1999/02/22-rdf-syntax-ns#"
   xmlns:svg="http://www.w3.org/2000/svg"
   xmlns="http://www.w3.org/2000/svg"
   xmlns:xlink="http://www.w3.org/1999/xlink"
   xmlns:sodipodi="http://sodipodi.sourceforge.net/DTD/sodipodi-0.dtd"
   xmlns:inkscape="http://www.inkscape.org/namespaces/inkscape"
   width="100%"
   height="100%"
   viewBox="0 0 300.00001 299.99998"
   version="1.1"
   id="svg8"
   inkscape:version="1.0.2 (e86c870879, 2021-01-15, custom)"
   sodipodi:docname="speedometer2.svg">
  <defs
     id="defs2">
    <linearGradient
       inkscape:collect="always"
       id="linearGradient1015">
      <stop
         style="stop-color:#42c0f4;stop-opacity:1"
         offset="0"
         id="stop1011" />
      <stop
         style="stop-color:#06151c;stop-opacity:1"
         offset="1"
         id="stop1013" />
    </linearGradient>
    <inkscape:path-effect
       effect="powerclip"
       id="path-effect988"
       is_visible="true"
       lpeversion="1"
       inverse="true"
       flatten="false"
       hide_clip="false"
       message="Use fill-rule evenodd on &lt;b&gt;fill and stroke&lt;/b&gt; dialog if no flatten result after convert clip to paths." />
    <inkscape:path-effect
       effect="powerclip"
       id="path-effect982"
       is_visible="true"
       lpeversion="1"
       inverse="true"
       flatten="false"
       hide_clip="false"
       message="Use fill-rule evenodd on &lt;b&gt;fill and stroke&lt;/b&gt; dialog if no flatten result after convert clip to paths." />
    <inkscape:path-effect
       effect="powerclip"
       id="path-effect954"
       is_visible="true"
       lpeversion="1"
       inverse="true"
       flatten="false"
       hide_clip="false"
       message="Use fill-rule evenodd on &lt;b&gt;fill and stroke&lt;/b&gt; dialog if no flatten result after convert clip to paths." />
    <inkscape:path-effect
       effect="powerclip"
       id="path-effect945"
       is_visible="true"
       lpeversion="1"
       inverse="true"
       flatten="false"
       hide_clip="false"
       message="Use fill-rule evenodd on &lt;b&gt;fill and stroke&lt;/b&gt; dialog if no flatten result after convert clip to paths." />
    <inkscape:path-effect
       effect="powerclip"
       id="path-effect947"
       is_visible="true"
       lpeversion="1"
       inverse="true"
       flatten="false"
       hide_clip="false"
       message="Use fill-rule evenodd on &lt;b&gt;fill and stroke&lt;/b&gt; dialog if no flatten result after convert clip to paths." />
    <inkscape:path-effect
       effect="powerclip"
       id="path-effect942"
       is_visible="true"
       lpeversion="1"
       inverse="true"
       flatten="false"
       hide_clip="false"
       message="Use fill-rule evenodd on &lt;b&gt;fill and stroke&lt;/b&gt; dialog if no flatten result after convert clip to paths." />
    <inkscape:path-effect
       effect="powerclip"
       id="path-effect953"
       is_visible="true"
       lpeversion="1"
       inverse="true"
       flatten="false"
       hide_clip="false"
       message="Use fill-rule evenodd on &lt;b&gt;fill and stroke&lt;/b&gt; dialog if no flatten result after convert clip to paths." />
    <inkscape:path-effect
       effect="powerclip"
       id="path-effect944"
       is_visible="true"
       lpeversion="1"
       inverse="true"
       flatten="false"
       hide_clip="false"
       message="Use fill-rule evenodd on &lt;b&gt;fill and stroke&lt;/b&gt; dialog if no flatten result after convert clip to paths." />
    <inkscape:path-effect
       effect="powerclip"
       id="path-effect957"
       is_visible="true"
       lpeversion="1"
       inverse="true"
       flatten="false"
       hide_clip="false"
       message="Use fill-rule evenodd on &lt;b&gt;fill and stroke&lt;/b&gt; dialog if no flatten result after convert clip to paths." />
    <linearGradient
       inkscape:collect="always"
       id="linearGradient1484">
      <stop
         style="stop-color:#42c0f4;stop-opacity:1"
         offset="0"
         id="stop1480" />
      <stop
         style="stop-color:#42c0f4;stop-opacity:0"
         offset="1"
         id="stop1482" />
    </linearGradient>
    <inkscape:path-effect
       effect="powerclip"
       id="path-effect1468"
       is_visible="true"
       lpeversion="1"
       inverse="true"
       flatten="false"
       hide_clip="false"
       message="Use fill-rule evenodd on &lt;b&gt;fill and stroke&lt;/b&gt; dialog if no flatten result after convert clip to paths." />
    <linearGradient
       inkscape:collect="always"
       id="linearGradient1458">
      <stop
         style="stop-color:#5d95ab;stop-opacity:1"
         offset="0"
         id="stop1454" />
      <stop
         style="stop-color:#186688;stop-opacity:1"
         offset="1"
         id="stop1456" />
    </linearGradient>
    <inkscape:path-effect
       effect="powerclip"
       id="path-effect1448"
       is_visible="true"
       lpeversion="1"
       inverse="true"
       flatten="false"
       hide_clip="false"
       message="Use fill-rule evenodd on &lt;b&gt;fill and stroke&lt;/b&gt; dialog if no flatten result after convert clip to paths." />
    <inkscape:path-effect
       effect="powerclip"
       id="path-effect1420"
       is_visible="true"
       lpeversion="1"
       inverse="true"
       flatten="false"
       hide_clip="false"
       message="Use fill-rule evenodd on &lt;b&gt;fill and stroke&lt;/b&gt; dialog if no flatten result after convert clip to paths." />
    <inkscape:path-effect
       effect="powerclip"
       id="path-effect1384"
       is_visible="true"
       lpeversion="1"
       inverse="true"
       flatten="false"
       hide_clip="false"
       message="Use fill-rule evenodd on &lt;b&gt;fill and stroke&lt;/b&gt; dialog if no flatten result after convert clip to paths." />
    <inkscape:path-effect
       effect="powerclip"
       id="path-effect1376"
       is_visible="true"
       lpeversion="1"
       inverse="true"
       flatten="false"
       hide_clip="false"
       message="Use fill-rule evenodd on &lt;b&gt;fill and stroke&lt;/b&gt; dialog if no flatten result after convert clip to paths." />
    <inkscape:path-effect
       effect="powerclip"
       id="path-effect1358"
       is_visible="true"
       lpeversion="1"
       inverse="true"
       flatten="false"
       hide_clip="false"
       message="Use fill-rule evenodd on &lt;b&gt;fill and stroke&lt;/b&gt; dialog if no flatten result after convert clip to paths." />
    <inkscape:path-effect
       effect="powerclip"
       id="path-effect1348"
       is_visible="true"
       lpeversion="1"
       inverse="true"
       flatten="false"
       hide_clip="false"
       message="Use fill-rule evenodd on &lt;b&gt;fill and stroke&lt;/b&gt; dialog if no flatten result after convert clip to paths." />
    <rect
       x="105.39035"
       y="123.32837"
       width="32.010365"
       height="13.882234"
       id="rect23021" />
    <rect
       x="118.5132"
       y="113.93758"
       width="41.110912"
       height="32.468845"
       id="rect23015" />
    <rect
       x="108.40992"
       y="105.32867"
       width="28.795134"
       height="36.226326"
       id="rect23003" />
    <linearGradient
       id="linearGradient22966"
       osb:paint="solid">
      <stop
         style="stop-color:#bac8cd;stop-opacity:1;"
         offset="0"
         id="stop22964" />
    </linearGradient>
    <rect
       x="160.84509"
       y="154.38989"
       width="20.067854"
       height="7.9422112"
       id="rect22840" />
    <rect
       x="162.39528"
       y="150.66789"
       width="18.197777"
       height="9.4639835"
       id="rect22834" />
    <rect
       x="163.49274"
       y="152.76756"
       width="12.909134"
       height="10.782066"
       id="rect22828" />
    <linearGradient
       inkscape:collect="always"
       id="linearGradient22672">
      <stop
         style="stop-color:#06151c;stop-opacity:1"
         offset="0"
         id="stop22668" />
      <stop
         style="stop-color:#0c6b95;stop-opacity:1"
         offset="1"
         id="stop22670" />
    </linearGradient>
    <linearGradient
       id="linearGradient17006"
       osb:paint="solid">
      <stop
         style="stop-color:#aabbc2;stop-opacity:1;"
         offset="0"
         id="stop17004" />
    </linearGradient>
    <filter
       inkscape:collect="always"
       style="color-interpolation-filters:sRGB"
       id="filter22448"
       x="-0.017094692"
       width="1.0341893"
       y="-0.017094692"
       height="1.0341893">
      <feGaussianBlur
         inkscape:collect="always"
         stdDeviation="2.5495549"
         id="feGaussianBlur22450" />
    </filter>
    <filter
       inkscape:collect="always"
       style="color-interpolation-filters:sRGB"
       id="filter22654"
       x="-0.018990954"
       width="1.0379819"
       y="-0.018994479"
       height="1.037989">
      <feGaussianBlur
         inkscape:collect="always"
         stdDeviation="2.4994093"
         id="feGaussianBlur22656" />
    </filter>
    <rect
       x="118.5132"
       y="113.93758"
       width="34.300247"
       height="25.900583"
       id="rect23033" />
    <rect
       x="105.39035"
       y="123.32837"
       width="32.010365"
       height="13.882234"
       id="rect23035" />
    <clipPath
       clipPathUnits="userSpaceOnUse"
       id="clipPath1344">
      <path
         style="display:block;fill:#ffffff;fill-opacity:1;fill-rule:evenodd;stroke-width:1.3;stroke-linejoin:round"
         id="path1346"
         sodipodi:type="arc"
         sodipodi:cx="313.73624"
         sodipodi:cy="139.54053"
         sodipodi:rx="62.176044"
         sodipodi:ry="62.835175"
         sodipodi:start="2.1017459"
         sodipodi:end="4.4232366"
         sodipodi:arc-type="slice"
         d="m 282.25325,193.72497 a 62.176044,62.835175 0 0 1 -30.23921,-61.76263 62.176044,62.835175 0 0 1 43.99333,-52.648442 l 17.72887,60.226632 z" />
    </clipPath>
    <clipPath
       clipPathUnits="userSpaceOnUse"
       id="clipPath1354">
      <path
         style="display:none;opacity:1;fill:#ffffff;fill-opacity:1;fill-rule:evenodd;stroke:none;stroke-width:0;stroke-linecap:square;stroke-miterlimit:4;stroke-dasharray:none;stroke-opacity:1;paint-order:fill markers stroke"
         id="path1356"
         sodipodi:type="arc"
         sodipodi:cx="313.73624"
         sodipodi:cy="139.54053"
         sodipodi:rx="59.90155"
         sodipodi:ry="61.539253"
         sodipodi:start="5.6430377"
         sodipodi:end="2.6625397"
         sodipodi:arc-type="slice"
         d="m 361.77774,102.78228 a 59.90155,61.539253 0 0 1 5.61352,64.11973 59.90155,61.539253 0 0 1 -53.10679,34.17519 59.90155,61.539253 0 0 1 -53.70678,-33.17083 l 53.15855,-28.36584 z"
         inkscape:label="speeds" />
    </clipPath>
    <clipPath
       clipPathUnits="userSpaceOnUse"
       id="clipPath1380">
      <ellipse
         style="display:none;opacity:1;fill:#ffffff;fill-opacity:1;fill-rule:evenodd;stroke:none;stroke-width:0;stroke-linecap:square;stroke-miterlimit:4;stroke-dasharray:none;stroke-opacity:1;paint-order:fill markers stroke"
         id="ellipse1382"
         cx="313.73624"
         cy="139.54053"
         rx="60.214104"
         ry="61.134258"
         d="m 373.95034,139.54053 a 60.214104,61.134258 0 0 1 -60.2141,61.13426 60.214104,61.134258 0 0 1 -60.21411,-61.13426 60.214104,61.134258 0 0 1 60.21411,-61.134261 60.214104,61.134258 0 0 1 60.2141,61.134261 z" />
      <path
         id="lpe_path-effect1384"
         style="display:inline;opacity:1;fill:#ffffff;fill-opacity:1;fill-rule:evenodd;stroke:none;stroke-width:0;stroke-linecap:square;stroke-miterlimit:4;stroke-dasharray:none;stroke-opacity:1;paint-order:fill markers stroke"
         class="powerclip"
         d="M 247.38604,72.207565 H 367.54241 V 173.93611 H 247.38604 Z m 126.5643,67.332965 a 60.214104,61.134258 0 0 0 -60.2141,-61.134261 60.214104,61.134258 0 0 0 -60.21411,61.134261 60.214104,61.134258 0 0 0 60.21411,61.13426 60.214104,61.134258 0 0 0 60.2141,-61.13426 z" />
    </clipPath>
    <clipPath
       clipPathUnits="userSpaceOnUse"
       id="clipPath1416">
      <ellipse
         style="display:block;fill:#ffffff;fill-opacity:1;fill-rule:evenodd;stroke-width:0.982734;stroke-linecap:round;stroke-linejoin:miter;stroke-miterlimit:4;stroke-dasharray:none;paint-order:stroke fill markers"
         id="ellipse1418"
         cx="308.62692"
         cy="135.95517"
         rx="52.401031"
         ry="55.922661" />
    </clipPath>
    <linearGradient
       inkscape:collect="always"
       xlink:href="#linearGradient1458"
       id="linearGradient1460"
       x1="282.79971"
       y1="192.05753"
       x2="372.96945"
       y2="129.12637"
       gradientUnits="userSpaceOnUse"
       gradientTransform="matrix(2.3770278,0,0,2.3428352,-595.72274,-177.2314)" />
    <linearGradient
       inkscape:collect="always"
       xlink:href="#linearGradient1484"
       id="linearGradient1478"
       gradientUnits="userSpaceOnUse"
       gradientTransform="matrix(1.483774,-1.366246,1.349831,1.5018178,-199.23021,87.410702)"
       x1="138.36237"
       y1="108.63808"
       x2="108.15608"
       y2="139.86116"
       spreadMethod="reflect" />
    <linearGradient
       inkscape:collect="always"
       xlink:href="#linearGradient22672"
       id="linearGradient1494"
       gradientUnits="userSpaceOnUse"
       gradientTransform="matrix(2.1404399,4.8242114e-8,3.3168656e-8,2.143518,-219.60486,-88.23224)"
       x1="99.699516"
       y1="147.8819"
       x2="128.61142"
       y2="117.57452" />
    <rect
       x="118.5132"
       y="113.93758"
       width="42.20953"
       height="22.660164"
       id="rect1526" />
    <rect
       x="105.39035"
       y="123.32837"
       width="19.308187"
       height="7.4570994"
       id="rect1528" />
    <rect
       x="118.5132"
       y="113.93758"
       width="34.300247"
       height="25.900583"
       id="rect1530" />
    <rect
       x="105.39035"
       y="123.32837"
       width="32.010365"
       height="13.882234"
       id="rect1532" />
    <rect
       x="160.84509"
       y="154.38989"
       width="20.067854"
       height="7.9422112"
       id="rect1562" />
    <clipPath
       clipPathUnits="userSpaceOnUse"
       id="clipPath940">
      <path
         style="display:none;fill:#ff0000;fill-rule:evenodd"
         id="path942"
         sodipodi:type="arc"
         sodipodi:cx="65.577278"
         sodipodi:cy="65.944656"
         sodipodi:rx="60.617649"
         sodipodi:ry="62.270859"
         sodipodi:start="6.1021233"
         sodipodi:end="2.1217898"
         sodipodi:arc-type="slice"
         d="M 125.20401,54.731274 A 60.617649,62.270859 0 0 1 99.826209,117.3238 60.617649,62.270859 0 0 1 33.841882,118.99973 L 65.577278,65.944656 Z" />
      <path
         id="lpe_path-effect944"
         style="display:block;fill:#ff0000;fill-rule:evenodd"
         class="powerclip"
         d="M 28.683593,49.988677 H 132.29707 V 134.13396 H 28.683593 Z M 125.20401,54.731274 65.577278,65.944656 33.841882,118.99973 A 60.617649,62.270859 0 0 0 99.826209,117.3238 60.617649,62.270859 0 0 0 125.20401,54.731274 Z" />
    </clipPath>
    <clipPath
       clipPathUnits="userSpaceOnUse"
       id="clipPath949">
      <ellipse
         style="display:none;opacity:1;fill:#ffffff;fill-opacity:1;fill-rule:evenodd;stroke-width:1.28894;stroke-linecap:round;stroke-linejoin:miter;stroke-miterlimit:4;stroke-dasharray:none;paint-order:stroke fill markers"
         id="ellipse951"
         cx="308.42963"
         cy="137.04884"
         rx="52.723705"
         ry="55.106781"
         d="m 361.15333,137.04884 a 52.723705,55.106781 0 0 1 -52.7237,55.10678 52.723705,55.106781 0 0 1 -52.72371,-55.10678 52.723705,55.106781 0 0 1 52.72371,-55.106778 52.723705,55.106781 0 0 1 52.7237,55.106778 z" />
      <path
         id="lpe_path-effect953"
         style="display:block;opacity:1;fill:#ffffff;fill-opacity:1;fill-rule:evenodd;stroke-width:1.28894;stroke-linecap:round;stroke-linejoin:miter;stroke-miterlimit:4;stroke-dasharray:none;paint-order:stroke fill markers"
         class="powerclip"
         d="m 277.7997,124.12637 h 101.2357 v 81.8885 H 277.7997 Z m 83.35363,12.92247 a 52.723705,55.106781 0 0 0 -52.7237,-55.106778 52.723705,55.106781 0 0 0 -52.72371,55.106778 52.723705,55.106781 0 0 0 52.72371,55.10678 52.723705,55.106781 0 0 0 52.7237,-55.10678 z" />
    </clipPath>
    <clipPath
       clipPathUnits="userSpaceOnUse"
       id="clipPath938">
      <ellipse
         style="display:none;fill:#ff0000;fill-rule:evenodd;stroke-width:1.19313"
         id="ellipse940"
         cx="60.431076"
         cy="62.86116"
         rx="52.568924"
         ry="55.38884"
         d="M 113,62.86116 A 52.568924,55.38884 0 0 1 60.431076,118.25 52.568924,55.38884 0 0 1 7.8621521,62.86116 52.568924,55.38884 0 0 1 60.431076,7.4723206 52.568924,55.38884 0 0 1 113,62.86116 Z" />
      <path
         id="lpe_path-effect942"
         style="display:inline;fill:#ff0000;fill-rule:evenodd;stroke-width:1.19313"
         class="powerclip"
         d="M 29.100531,50.172904 H 131.38136 V 133.32968 H 29.100531 Z M 113,62.86116 A 52.568924,55.38884 0 0 0 60.431076,7.4723206 52.568924,55.38884 0 0 0 7.8621521,62.86116 52.568924,55.38884 0 0 0 60.431076,118.25 52.568924,55.38884 0 0 0 113,62.86116 Z" />
    </clipPath>
    <linearGradient
       inkscape:collect="always"
       xlink:href="#linearGradient22672"
       id="linearGradient935"
       gradientUnits="userSpaceOnUse"
       x1="87.019066"
       y1="109.3283"
       x2="113.97054"
       y2="136.38704"
       spreadMethod="reflect"
       gradientTransform="matrix(2.8016762,-4.2557037,0.10775344,4.9918677,-166.51196,-69.332225)" />
    <clipPath
       clipPathUnits="userSpaceOnUse"
       id="clipPath943">
      <ellipse
         style="display:none;fill:#ffffff;fill-opacity:1;fill-rule:evenodd;stroke-width:1.3;stroke-linejoin:round"
         id="ellipse945"
         cx="313.73624"
         cy="139.54053"
         rx="41.957912"
         ry="43.115601"
         d="m 355.69415,139.54053 a 41.957912,43.115601 0 0 1 -41.95791,43.1156 41.957912,43.115601 0 0 1 -41.95792,-43.1156 41.957912,43.115601 0 0 1 41.95792,-43.115603 41.957912,43.115601 0 0 1 41.95791,43.115603 z" />
    </clipPath>
    <linearGradient
       inkscape:collect="always"
       xlink:href="#linearGradient1015"
       id="linearGradient1009"
       x1="149.11992"
       y1="135.03139"
       x2="206.89519"
       y2="135.36847"
       gradientUnits="userSpaceOnUse"
       spreadMethod="reflect"
       gradientTransform="matrix(1,0,0,0.62853938,0,54.847813)" />
    <mask
       maskUnits="userSpaceOnUse"
       id="mask942">
      <path
         id="speedMask"
         clip-path="none"
         mask="none"
         style="display:inline;opacity:1;fill:#ffffff;fill-opacity:1;fill-rule:evenodd;stroke:none;stroke-width:0;stroke-linecap:square;stroke-miterlimit:4;stroke-dasharray:none;stroke-opacity:1;paint-order:fill markers stroke"
         inkscape:label="speedMask"
         d="M 149.53459,8.5098053 C 123.00953,8.589347 97.044249,16.139619 74.618179,30.294252 11.820982,69.928776 -8.7593353,153.19627 26.643638,218.4416 L 59.167975,200.68741 C 32.421489,151.9227 46.758847,91.581922 94.132012,62.159393 141.00211,33.049017 201.10183,45.198712 233.72989,89.55395 L 264.66808,67.15073 C 238.02555,30.62661 194.76549,8.3750411 149.53459,8.5098053 Z m 1.43712,140.2303947 -0.96461,0.64263 -1.91746,1.10892 1.86648,-1.01097 z"
         sodipodi:nodetypes="ccccccccccccc" />
    </mask>
    <mask
       maskUnits="userSpaceOnUse"
       id="mask939">
      <path
         id="socMask"
         clip-path="none"
         mask="none"
         style="display:inline;opacity:1;fill:#ffffff;fill-opacity:1;fill-rule:evenodd;stroke-width:2.35987;stroke-linecap:round;stroke-linejoin:miter;stroke-miterlimit:4;stroke-dasharray:none;paint-order:stroke fill markers"
         inkscape:label="socMask"
         d="m 290.67969,126.26953 -27.52735,5.12109 0.32231,-0.0312 c 4.37742,46.62211 -15.97517,92.06324 -53.28756,118.97652 -37.14794,26.79343 -85.41436,31.10764 -126.512127,11.31698 l -6.270236,10.60536 c 47.364943,28.35243 106.780473,26.57832 152.386773,-4.55055 45.60623,-31.12901 69.64887,-86.73607 60.88819,-141.4382 z"
         sodipodi:nodetypes="cccccccc" />
    </mask>
  </defs>
  <sodipodi:namedview
     id="base"
     pagecolor="#ffffff"
     bordercolor="#666666"
     borderopacity="1.0"
     inkscape:pageopacity="0.0"
     inkscape:pageshadow="2"
     inkscape:zoom="0.99999999"
     inkscape:cx="-237.75253"
     inkscape:cy="233.58116"
     inkscape:document-units="mm"
     inkscape:current-layer="layer1"
     inkscape:document-rotation="0"
     showgrid="false"
     inkscape:window-width="1920"
     inkscape:window-height="1017"
     inkscape:window-x="-8"
     inkscape:window-y="-8"
     inkscape:window-maximized="1"
     inkscape:object-paths="false"
     inkscape:snap-intersection-paths="true"
     inkscape:snap-grids="false"
     inkscape:snap-page="false"
     inkscape:snap-object-midpoints="true"
     inkscape:snap-center="true"
     inkscape:snap-others="false"
     inkscape:snap-bbox="true"
     inkscape:snap-nodes="false"
     inkscape:pagecheckerboard="true"
     fit-margin-top="0"
     units="px" />
  <metadata
     id="metadata5">
    <rdf:RDF>
      <cc:Work
         rdf:about="">
        <dc:format>image/svg+xml</dc:format>
        <dc:type
           rdf:resource="http://purl.org/dc/dcmitype/StillImage" />
        <dc:title />
      </cc:Work>
    </rdf:RDF>
  </metadata>
  <g
     inkscape:label="Layer 1"
     inkscape:groupmode="layer"
     id="layer1"
     style="display:inline"
     sodipodi:insensitive="true">
    <text
       xml:space="preserve"
       id="text22826"
       style="font-style:italic;font-variant:normal;font-weight:normal;font-stretch:normal;font-size:10.5833px;line-height:1.25;font-family:'Geometr706 BlkCn BT';-inkscape-font-specification:'Geometr706 BlkCn BT Italic';white-space:pre;shape-inside:url(#rect22828);fill:#000000;fill-opacity:1;stroke:none;"
       transform="matrix(1.7583003,-1.5765661,1.5995754,1.7330079,-752.41781,78.954524)" />
    <text
       xml:space="preserve"
       id="text23001"
       style="font-style:normal;font-weight:normal;font-size:10.5833px;line-height:1.25;font-family:sans-serif;white-space:pre;shape-inside:url(#rect23003);fill:#000000;fill-opacity:1;stroke:none;"
       transform="matrix(1.7583003,-1.5765661,1.5995754,1.7330079,-752.41781,78.954524)" />
    <path
       style="display:inline;opacity:1;fill:#41b4e5;fill-opacity:1;fill-rule:evenodd;stroke:none;stroke-width:0;stroke-linecap:square;stroke-miterlimit:4;stroke-dasharray:none;stroke-opacity:1;paint-order:fill markers stroke"
       id="path950"
       d="m 259.63652,168.93611 a 61.350201,62.332962 0 0 1 20.94154,-81.840093 61.350201,62.332962 0 0 1 81.96435,14.676413 l -48.80617,37.7681 z"
       sodipodi:type="arc"
       sodipodi:arc-type="slice"
       sodipodi:start="2.6505"
       sodipodi:end="5.6322775"
       sodipodi:ry="62.332962"
       sodipodi:rx="61.350201"
       sodipodi:cy="139.54053"
       sodipodi:cx="313.73624"
       clip-path="url(#clipPath1380)"
       inkscape:path-effect="#path-effect1384"
       transform="matrix(2.3770279,0,0,2.3428353,-595.72276,-177.23141)" />
    <path
       id="speed"
       clip-path="none"
       mask="url(#mask942)"
       style="display:inline;opacity:1;fill:#5d95ab;fill-opacity:1;fill-rule:evenodd;stroke:none;stroke-width:0;stroke-linecap:square;stroke-miterlimit:4;stroke-dasharray:none;stroke-opacity:1;paint-order:fill markers stroke"
       inkscape:label="speed"
       d="M 149.61719,9.15625 A 140.53922,140.53266 0 0 0 74.986328,30.873047 140.53922,140.53266 0 0 0 26.490234,216.67383 l 31.34375,-16.99414 A 105.08741,104.59182 0 0 1 94.425781,60.876953 105.08741,104.59182 0 0 1 234.90039,87.833984 L 263.60742,66.910156 A 140.53922,140.53266 0 0 0 149.61719,9.15625 Z m 1.43164,139.79492 -0.96094,0.64063 -1.91016,1.10547 1.85938,-1.00782 z" />
    <path
       style="display:inline;opacity:1;fill:#97a8af;fill-opacity:1;fill-rule:evenodd"
       id="path947"
       sodipodi:type="arc"
       sodipodi:cx="65.577278"
       sodipodi:cy="65.944656"
       sodipodi:rx="61.719788"
       sodipodi:ry="63.189308"
       sodipodi:start="6.1089212"
       sodipodi:end="2.1138465"
       sodipodi:arc-type="slice"
       clip-path="url(#clipPath940)"
       d="m 126.36228,54.988677 a 61.719788,63.189308 0 0 1 -25.88421,63.072473 61.719788,63.189308 0 0 1 -66.794477,1.98218 L 65.577278,65.944656 Z"
       inkscape:path-effect="#path-effect944"
       transform="matrix(2.3770279,0,0,2.3428353,-5.7916083,-4.9056449)" />
    <path
       style="display:inline;fill:#aebdc3;fill-opacity:1;fill-rule:evenodd"
       id="path930"
       sodipodi:type="arc"
       sodipodi:cx="65.556076"
       sodipodi:cy="65.98616"
       sodipodi:rx="60.825279"
       sodipodi:ry="62.343517"
       sodipodi:start="6.1088573"
       sodipodi:end="2.1143093"
       sodipodi:arc-type="slice"
       d="m 125.45945,55.172904 a 60.825279,62.343517 0 0 1 -25.518403,62.239206 60.825279,62.343517 0 0 1 -65.840516,1.9337 L 65.556076,65.98616 Z"
       clip-path="url(#clipPath938)"
       inkscape:path-effect="#path-effect942"
       transform="matrix(2.3770279,0,0,2.3428353,-5.7916083,-4.9056449)" />
    <path
       style="display:inline;opacity:1;fill:#bac8cd;fill-opacity:1;fill-rule:evenodd;stroke-width:1;stroke-linecap:round;stroke-linejoin:miter;stroke-miterlimit:4;stroke-dasharray:none;paint-order:stroke fill markers"
       id="path1424"
       sodipodi:type="arc"
       sodipodi:arc-type="slice"
       sodipodi:start="6.1129578"
       sodipodi:end="2.1095316"
       sodipodi:ry="61.474339"
       sodipodi:rx="60.299164"
       sodipodi:cy="139.54053"
       sodipodi:cx="313.73624"
       clip-path="url(#clipPath949)"
       transform="matrix(2.3770279,0,0,2.3428353,-595.72276,-177.23141)"
       d="m 373.16385,129.12637 a 60.299164,61.474339 0 0 1 -25.32322,61.11137 60.299164,61.474339 0 0 1 -65.04093,2.06979 l 30.93654,-52.767 z"
       inkscape:path-effect="#path-effect953" />
    <path
       id="soc"
       clip-path="none"
       mask="url(#mask939)"
       style="display:inline;opacity:1;fill:url(#linearGradient1460);fill-opacity:1;fill-rule:evenodd;stroke-width:2.35987;stroke-linecap:round;stroke-linejoin:miter;stroke-miterlimit:4;stroke-dasharray:none;paint-order:stroke fill markers"
       inkscape:label="soc"
       d="m 290.17969,127.01953 -27.02735,4.37109 0.32422,-0.0312 A 126.63816,130.10667 0 0 1 210.18945,250.33594 126.63816,130.10667 0 0 1 83.679688,261.6582 l -6.279297,10.59571 a 141.94648,142.65788 0 0 0 152.386719,-4.55079 141.94648,142.65788 0 0 0 60.39258,-140.68359 z" />
    <path
       id="path1472"
       style="display:inline;opacity:1;fill:#7ca9c0;fill-opacity:1;fill-rule:nonzero;stroke:none;stroke-width:3.88872;stroke-linecap:butt;stroke-linejoin:miter;stroke-miterlimit:4;stroke-dasharray:none;stroke-opacity:1;paint-order:markers stroke fill;filter:url(#filter22448)"
       d="M 409.62891,347.74023 A 178.97197,178.97197 0 0 0 230.65625,526.71094 178.97197,178.97197 0 0 0 409.62891,705.68359 178.97197,178.97197 0 0 0 588.59961,526.71094 178.97197,178.97197 0 0 0 409.62891,347.74023 Z m -0.23243,8.56641 a 169.22677,170.40504 0 0 1 0.46485,0 169.22677,170.40504 0 0 1 169.22656,170.4043 A 169.22677,170.40504 0 0 1 409.86133,697.11719 169.22677,170.40504 0 0 1 240.63477,526.71094 169.22677,170.40504 0 0 1 409.39648,356.30664 Z"
       transform="matrix(0.39519317,-0.36065838,0.35951833,0.39644636,-201.20684,87.5266)" />
    <path
       id="path1476"
       style="display:inline;opacity:1;fill:url(#linearGradient1478);fill-opacity:1;fill-rule:nonzero;stroke:none;stroke-width:2.03206;stroke-linecap:butt;stroke-linejoin:miter;stroke-miterlimit:4;stroke-dasharray:none;stroke-opacity:1;paint-order:markers stroke fill"
       d="m 90.936287,83.321467 a 87.265613,88.32682 0 0 0 -5.602412,124.565843 87.265613,88.32682 0 0 0 123.274915,5.898 87.265613,88.32682 0 0 0 5.82643,-124.7735 87.265613,88.32682 0 0 0 -123.273479,-5.897895 87.265613,88.32682 0 0 0 -0.225342,0.207341 z m 2.361206,2.563141 A 83.812178,84.830026 0.43794069 0 1 211.69251,91.537256 83.812178,84.830026 0.43794069 0 1 206.08501,211.37183 83.812178,84.830026 0.43794069 0 1 87.690137,205.71766 83.812178,84.830026 0.43794069 0 1 93.297493,85.884608 Z" />
    <path
       id="path1490"
       style="display:inline;opacity:1;fill:#80bcd6;fill-opacity:1;fill-rule:nonzero;stroke:none;stroke-width:3.77953;stroke-linecap:butt;stroke-linejoin:miter;stroke-miterlimit:4;stroke-dasharray:none;stroke-opacity:1;paint-order:markers stroke fill;filter:url(#filter22654)"
       d="M 409.62695,368.80859 A 157.93284,157.90357 0 0 0 251.69531,526.71094 157.93284,157.90357 0 0 0 409.62695,684.61523 157.93284,157.90357 0 0 0 567.56055,526.71094 157.93284,157.90357 0 0 0 409.62695,368.80859 Z m -0.26757,6.06836 a 152.05,151.83538 0 0 1 0.26757,0 A 152.05,151.83538 0 0 1 561.67773,526.71094 152.05,151.83538 0 0 1 409.62695,678.54688 152.05,151.83538 0 0 1 257.57812,526.71094 152.05,151.83538 0 0 1 409.35938,374.87695 Z"
       transform="matrix(0.39181033,-0.36119972,0.35644087,0.39704137,-198.68741,87.198791)" />
    <ellipse
       style="display:inline;opacity:1;mix-blend-mode:normal;fill:url(#linearGradient1494);fill-opacity:1;fill-rule:nonzero;stroke:none;stroke-width:2.14198;stroke-linecap:butt;stroke-linejoin:miter;stroke-miterlimit:4;stroke-dasharray:none;stroke-opacity:1;paint-order:markers stroke fill"
       id="ellipse1492"
       cx="12.377571"
       cy="210.48817"
       rx="78.327133"
       ry="78.170029"
       transform="matrix(0.73457738,-0.67852492,0.66730614,0.74478354,0,0)" />
    <text
       xml:space="preserve"
       style="font-style:normal;font-weight:normal;font-size:39.9604px;line-height:1.25;font-family:sans-serif;text-align:center;text-anchor:middle;display:inline;fill:#ffffff;fill-opacity:1;stroke:none;stroke-width:0.624381"
       x="147.75009"
       y="88.739571"
       id="speedtext"
       transform="scale(1.0072708,0.99278165)"><tspan
         sodipodi:role="line"
         id="speedText"
         x="147.75009"
         y="88.739571"
         style="font-size:39.9604px;text-align:center;text-anchor:middle;fill:#ffffff;fill-opacity:1;stroke-width:0.624381"
         dx="0 0"
         dy="29.380377 0">80</tspan></text>
    <text
       xml:space="preserve"
       style="font-style:normal;font-weight:normal;font-size:16.6502px;line-height:1.25;font-family:sans-serif;display:inline;fill:#ffffff;fill-opacity:1;stroke:none;stroke-width:0.624381"
       x="125.20235"
       y="130.38873"
       id="text1546"
       transform="scale(1.0072708,0.99278165)"><tspan
         sodipodi:role="line"
         id="tspan1544"
         x="125.20235"
         y="130.38873"
         style="font-size:16.6502px;fill:#ffffff;fill-opacity:1;stroke-width:0.624381"
         dy="10.713808">KM/H</tspan></text>
    <text
       xml:space="preserve"
       style="font-style:normal;font-weight:normal;font-size:33.3004px;line-height:1.25;font-family:sans-serif;text-align:center;text-anchor:middle;display:inline;fill:#ffffff;fill-opacity:1;stroke:none;stroke-width:0.624381"
       x="147.56932"
       y="159.40494"
       id="kmLefttext"
       transform="scale(1.0072708,0.99278165)"><tspan
         sodipodi:role="line"
         id="kmLeftText"
         x="147.56932"
         y="159.40494"
         style="font-size:33.3004px;text-align:center;text-anchor:middle;fill:#ffffff;fill-opacity:1;stroke-width:0.624381"
         dy="24.353853">170</tspan></text>
    <text
       xml:space="preserve"
       style="font-style:normal;font-weight:normal;font-size:14.9852px;line-height:1.25;font-family:sans-serif;display:inline;fill:#ffffff;fill-opacity:1;stroke:none;stroke-width:0.624381"
       x="115.54766"
       y="210.51923"
       id="text1554"
       transform="scale(1.0072708,0.99278165)"><tspan
         sodipodi:role="line"
         id="tspan1552"
         x="115.54766"
         y="210.51923"
         style="font-size:14.9852px;fill:#ffffff;fill-opacity:1;stroke-width:0.624381">KM LEFT</tspan></text>
    <text
       xml:space="preserve"
       style="font-style:normal;font-weight:normal;font-size:14.9852px;line-height:1.25;font-family:sans-serif;text-align:center;text-anchor:middle;fill:#000000;fill-opacity:1;stroke:none;stroke-width:0.624381"
       x="272.81"
       y="109.54724"
       id="soctext"
       transform="scale(1.0072708,0.99278165)"><tspan
         sodipodi:role="line"
         id="socText"
         x="272.81"
         y="109.54724"
         style="font-size:14.9852px;text-align:center;text-anchor:middle;stroke-width:0.624381"
         dy="9.8170576">100%</tspan></text>
    <rect
       style="fill:url(#linearGradient1009);fill-opacity:1;fill-rule:evenodd;stroke-width:0;stroke-linecap:square;paint-order:stroke fill markers"
       id="rect1001"
       width="131.69864"
       height="1"
       x="84.035385"
       y="147.65445" />
  </g>
</svg>
